<?xml version="1.0" encoding="iso-8859-1"?>
<!-- Generator: Adobe Illustrator 19.0.0, SVG Export Plug-In . SVG Version: 6.00 Build 0)  -->
<svg version="1.1" id="Capa_1" xmlns="http://www.w3.org/2000/svg" xmlns:xlink="http://www.w3.org/1999/xlink" x="0px" y="0px"
	 viewBox="0 0 489.932 489.932" style="enable-background:new 0 0 489.932 489.932;" xml:space="preserve">
<g>
	<g>
		<path d="M234.971,398.156l45.9-35.6c15.2-10.7,35.8-51.2,1-78.6l-48-37.7c-4.2-2.5-4.9-8.6,1-12.6l44.9-32.5
			c22.5-16.5,32.5-53.7,0-79.7l-44.8-33.6c-5-3.7-4.6-8.9,1-12.6l52.2-38.8c9.4-6.3,10.4-18.9,4.2-28.3s-18.8-10.5-28.1-4.2
			l-52.2,38.8c-30.5,24.7-29.8,56.3,0,79.7l44.9,33.5c5.8,3.8,4.1,10.2,0,12.6l-45.9,33.5c-28.7,21.6-29.8,58-1,78.6l48,37.7
			c4.9,3.1,3.7,9.5-1,12.6l-47.1,34.7c-29.8,23.2-25.3,58.9-1,78.6l54.2,41.9c4.2,3.1,18.8,8.7,28.2-5.2c7.3-8.4,6.3-21-3.1-28.3
			l-54.3-41.9C229.571,407.356,229.771,401.856,234.971,398.156z"/>
		<path d="M423.971,398.156l45.9-35.6c15.2-10.7,35.8-51.2,1-78.6l-48-37.7c-4.2-2.5-4.9-8.6,1-12.6l44.9-32.5
			c22.5-16.5,32.5-53.7,0-79.7l-44.8-33.6c-5-3.7-4.6-8.9,1-12.6l52.2-38.8c9.4-6.3,10.4-18.9,4.2-28.3s-18.8-10.5-28.2-4.2
			l-52.2,38.8c-30.5,24.7-29.8,56.3,0,79.7l44.9,33.5c5.8,3.8,4.1,10.2,0,12.6l-45.9,33.5c-28.7,21.6-29.8,58-1,78.6l48,37.7
			c4.9,3.1,3.7,9.5-1,12.6l-47,34.7c-29.8,23.2-25.3,58.9-1,78.6l54.2,41.9c4.2,3.1,18.8,8.7,28.2-5.2c7.3-8.4,6.3-21-3.1-28.3
			l-54.3-41.9C418.471,407.356,418.771,401.856,423.971,398.156z"/>
		<path d="M46.071,398.156l45.9-35.6c15.2-10.7,35.8-51.2,1-78.6l-48-37.7c-4.2-2.5-4.9-8.6,1-12.6l44.9-32.5
			c22.5-16.5,32.5-53.7,0-79.7l-44.8-33.6c-5-3.7-4.6-8.9,1-12.6l52.2-38.8c9.4-6.3,10.4-18.9,4.2-28.3s-18.8-10.5-28.2-4.2
			l-52.2,38.8c-30.5,24.7-29.8,56.3,0,79.7l44.9,33.5c5.8,3.8,4.1,10.2,0,12.6l-45.9,33.5c-28.7,21.6-29.8,58-1,78.6l48,37.7
			c4.9,3.1,3.7,9.5-1,12.6l-47.1,34.7c-29.8,23.2-25.3,58.9-1,78.6l54.2,41.9c4.2,3.1,18.8,8.7,28.2-5.2c7.3-8.4,6.3-21-3.1-28.3
			l-54.3-41.9C40.571,407.356,40.871,401.856,46.071,398.156z"/>
	</g>
</g>
<g>
</g>
<g>
</g>
<g>
</g>
<g>
</g>
<g>
</g>
<g>
</g>
<g>
</g>
<g>
</g>
<g>
</g>
<g>
</g>
<g>
</g>
<g>
</g>
<g>
</g>
<g>
</g>
<g>
</g>
</svg>
