<?xml version="1.0" encoding="UTF-8" standalone="no"?>
<!-- Created with Inkscape (http://www.inkscape.org/) -->
<svg xmlns:rdf="http://www.w3.org/1999/02/22-rdf-syntax-ns#" xmlns="http://www.w3.org/2000/svg" xmlns:cc="http://web.resource.org/cc/" xmlns:dc="http://purl.org/dc/elements/1.1/" xmlns:svg="http://www.w3.org/2000/svg" xmlns:inkscape="http://www.inkscape.org/namespaces/inkscape" xmlns:sodipodi="http://sodipodi.sourceforge.net/DTD/sodipodi-0.dtd" xmlns:ns1="http://sozi.baierouge.fr" xmlns:xlink="http://www.w3.org/1999/xlink" id="svg2" viewBox="0 0 176.15 279.84" version="1.0" inkscape:version="0.91 r13725">
  <g id="layer1" transform="translate(-155.38 -366.59)">
    <path id="path3178" style="stroke-linejoin:round;fill-rule:evenodd;stroke:#000000;stroke-width:4;fill:#535d6c" d="m280.77 393.88l48.76-25.29-46.45 248.42-23.09 27.42 20.78-250.55z"/>
    <path id="path3176" style="stroke-linejoin:round;fill-rule:evenodd;stroke:#000000;stroke-width:4;fill:#939dac" d="m157.38 402.7l123.39-8.82 48.76-25.29-134.91 18.37-37.24 15.74z"/>
    <path id="path3174" style="stroke-linejoin:round;fill-rule:evenodd;stroke:#000000;stroke-width:4;fill:#6f7c91" d="m157.38 402.7l123.39-8.82-20.78 250.55-67.36-14.48-35.25-227.25z"/>
    <path id="path2385" style="fill:#4d4d4d" d="m266.92 478.87a45.64 53.509 0 1 1 -91.28 0 45.64 53.509 0 1 1 91.28 0z" transform="matrix(1 0 0 .95744 .62952 9.2882)"/>
    <path id="path2389" style="fill:#4d4d4d" d="m266.92 478.87a45.64 53.509 0 1 1 -91.28 0 45.64 53.509 0 1 1 91.28 0z" transform="matrix(.62759 0 0 .56334 87.15 307.73)"/>
    <path id="path3206" style="fill:#666666" d="m261.2 504.8a45.64 53.509 0 0 1 -61.8 21.03l21.88-46.96z" transform="matrix(1 0 0 .95744 .62952 9.2882)"/>
    <path id="path3161" style="stroke-linejoin:round;stroke-opacity:0.96;stroke:#000000;stroke-linecap:round;stroke-width:16.774;fill:#cccccc" d="m266.92 478.87a45.64 53.509 0 1 1 -91.28 0 45.64 53.509 0 1 1 91.28 0z" transform="matrix(.24138 0 0 .23559 168.49 354.96)"/>
    <path id="path3210" style="fill:#666666" d="m258.87 509.22a45.64 53.509 0 0 1 -56.38 18.41l18.79-48.76z" transform="matrix(.62759 0 0 .56334 87.15 307.73)"/>
    <path id="path3165" style="stroke-linejoin:round;stroke-opacity:0.96;stroke:#000000;stroke-linecap:round;stroke-width:27.291;fill:#cccccc" d="m266.92 478.87a45.64 53.509 0 1 1 -91.28 0 45.64 53.509 0 1 1 91.28 0z" transform="matrix(.15244 0 0 .14093 192.29 510.01)"/>
    <path id="path3186" style="fill:#ffffff" d="m226.63 461.75a4.4194 3.0052 0 1 1 -8.84 0 4.4194 3.0052 0 1 1 8.84 0z" transform="matrix(1.44 0 0 1.6471 -98.302 -296.13)"/>
    <path id="path3190" style="fill:#ffffff" d="m226.63 461.75a4.4194 3.0052 0 1 1 -8.84 0 4.4194 3.0052 0 1 1 8.84 0z" transform="matrix(.67688 0 0 .76471 75.689 222.8)"/>
    <path id="path3208" style="stroke-linejoin:round;stroke:#000000;stroke-linecap:round;stroke-width:4.0879;fill:none" d="m266.92 478.87a45.64 53.509 0 1 1 -91.28 0 45.64 53.509 0 1 1 91.28 0z" transform="matrix(1 0 0 .95744 .62952 9.2882)"/>
    <path id="path3212" style="stroke-linejoin:round;stroke:#000000;stroke-linecap:round;stroke-width:6.7273;fill:none" d="m266.92 478.87a45.64 53.509 0 1 1 -91.28 0 45.64 53.509 0 1 1 91.28 0z" transform="matrix(.62759 0 0 .56334 87.15 307.73)"/>
  </g>
  <metadata>
    <rdf:RDF>
      <cc:Work>
        <dc:format>image/svg+xml</dc:format>
        <dc:type rdf:resource="http://purl.org/dc/dcmitype/StillImage"/>
        <cc:license rdf:resource="http://creativecommons.org/licenses/publicdomain/"/>
        <dc:publisher>
          <cc:Agent rdf:about="http://openclipart.org/">
            <dc:title>Openclipart</dc:title>
          </cc:Agent>
        </dc:publisher>
        <dc:title>Cartoon speaker</dc:title>
        <dc:date>2008-07-10T10:41:29</dc:date>
        <dc:description/>
        <dc:source>https://openclipart.org/detail/17685/cartoon-speaker-by-lemmling</dc:source>
        <dc:creator>
          <cc:Agent>
            <dc:title>lemmling</dc:title>
          </cc:Agent>
        </dc:creator>
        <dc:subject>
          <rdf:Bag>
            <rdf:li>cartoon</rdf:li>
            <rdf:li>colour</rdf:li>
            <rdf:li>electronics</rdf:li>
            <rdf:li>how i did it</rdf:li>
            <rdf:li>loudspeaker</rdf:li>
            <rdf:li>music</rdf:li>
            <rdf:li>sound</rdf:li>
            <rdf:li>speaker</rdf:li>
          </rdf:Bag>
        </dc:subject>
      </cc:Work>
      <cc:License rdf:about="http://creativecommons.org/licenses/publicdomain/">
        <cc:permits rdf:resource="http://creativecommons.org/ns#Reproduction"/>
        <cc:permits rdf:resource="http://creativecommons.org/ns#Distribution"/>
        <cc:permits rdf:resource="http://creativecommons.org/ns#DerivativeWorks"/>
      </cc:License>
    </rdf:RDF>
  </metadata>
</svg>
